G75*
G70*
%OFA0B0*%
%FSLAX24Y24*%
%IPPOS*%
%LPD*%
%AMOC8*
5,1,8,0,0,1.08239X$1,22.5*
%
%ADD10C,0.0100*%
%ADD11C,0.0060*%
%ADD12C,0.0040*%
%ADD13C,0.0050*%
%ADD14C,0.0080*%
%ADD15C,0.0070*%
D10*
X000150Y000150D02*
X000150Y027315D01*
X028103Y027315D01*
X028103Y000150D01*
X000150Y000150D01*
X002150Y001878D02*
X002150Y008650D01*
X016717Y008650D01*
X016717Y001878D01*
X002150Y001878D01*
X002150Y010150D02*
X018150Y010150D01*
X018150Y018150D01*
X002150Y018150D01*
X002150Y010150D01*
X019878Y010048D02*
X021138Y010048D01*
X021138Y010796D01*
X025469Y010796D01*
X025469Y010048D01*
X026650Y010048D01*
X026650Y021150D01*
X019878Y021150D01*
X019878Y010048D01*
D11*
X020289Y010856D02*
X020689Y010856D01*
X021039Y011206D01*
X021039Y011606D01*
X020689Y011956D01*
X020289Y011956D01*
X019939Y011606D01*
X019939Y011206D01*
X020289Y010856D01*
X021198Y011206D02*
X021198Y011606D01*
X021548Y011956D01*
X021948Y011956D01*
X022298Y011606D01*
X022298Y011206D01*
X021948Y010856D01*
X021548Y010856D01*
X021198Y011206D01*
X023679Y013238D02*
X023786Y013131D01*
X024213Y013131D01*
X024320Y013238D01*
X024320Y013451D01*
X024213Y013558D01*
X024320Y013776D02*
X023679Y013776D01*
X023893Y013882D02*
X023893Y014096D01*
X024000Y014203D01*
X024320Y014203D01*
X024213Y014420D02*
X024106Y014527D01*
X024106Y014847D01*
X024000Y014847D02*
X023893Y014740D01*
X023893Y014527D01*
X024213Y014420D02*
X024320Y014527D01*
X024320Y014847D01*
X024000Y014847D01*
X024106Y015065D02*
X023893Y015278D01*
X023893Y015385D01*
X024000Y015602D02*
X024213Y015602D01*
X024320Y015709D01*
X024320Y016029D01*
X024427Y016029D02*
X023893Y016029D01*
X023893Y015709D01*
X024000Y015602D01*
X023893Y015065D02*
X024320Y015065D01*
X024534Y015815D02*
X024534Y015922D01*
X024427Y016029D01*
X024213Y016246D02*
X024000Y016246D01*
X023893Y016353D01*
X023893Y016567D01*
X024000Y016673D01*
X024106Y016673D01*
X024106Y016246D01*
X024213Y016246D02*
X024320Y016353D01*
X024320Y016567D01*
X024213Y017535D02*
X024106Y017535D01*
X023893Y017749D01*
X023786Y017749D01*
X023679Y017642D01*
X023786Y017535D01*
X023893Y017535D01*
X024320Y017962D01*
X024320Y017749D02*
X024320Y017642D01*
X024213Y017535D01*
X024320Y017749D02*
X024106Y017962D01*
X022820Y017964D02*
X022713Y017857D01*
X022286Y017857D01*
X022393Y017750D02*
X022393Y017964D01*
X022393Y017533D02*
X022393Y017213D01*
X022500Y017106D01*
X022713Y017106D01*
X022820Y017213D01*
X022820Y017533D01*
X022606Y016888D02*
X022500Y016888D01*
X022393Y016781D01*
X022393Y016568D01*
X022500Y016461D01*
X022713Y016461D01*
X022820Y016568D01*
X022820Y016781D01*
X022606Y016888D02*
X022606Y016461D01*
X022393Y016245D02*
X022393Y016031D01*
X022286Y016138D02*
X022713Y016138D01*
X022820Y016245D01*
X022713Y015814D02*
X022500Y015814D01*
X022393Y015707D01*
X022393Y015494D01*
X022500Y015387D01*
X022713Y015387D01*
X022820Y015494D01*
X022820Y015707D01*
X022713Y015814D01*
X022393Y015170D02*
X022393Y015063D01*
X022606Y014850D01*
X022393Y014850D02*
X022820Y014850D01*
X022500Y014632D02*
X022606Y014526D01*
X022606Y014205D01*
X022820Y014205D02*
X022179Y014205D01*
X022179Y014526D01*
X022286Y014632D01*
X022500Y014632D01*
X023893Y013882D02*
X024000Y013776D01*
X023786Y013558D02*
X023679Y013451D01*
X023679Y013238D01*
X024501Y011956D02*
X024151Y011606D01*
X024151Y011206D01*
X024501Y010856D01*
X024901Y010856D01*
X025251Y011206D01*
X025251Y011606D01*
X024901Y011956D01*
X024501Y011956D01*
X025372Y011606D02*
X025372Y011206D01*
X025722Y010856D01*
X026122Y010856D01*
X026472Y011206D01*
X026472Y011606D01*
X026122Y011956D01*
X025722Y011956D01*
X025372Y011606D01*
X024400Y007150D02*
X023900Y007150D01*
X023650Y006900D01*
X023400Y007150D01*
X022900Y007150D01*
X022650Y006900D01*
X022400Y007150D01*
X021900Y007150D01*
X021650Y006900D01*
X021650Y006400D01*
X021900Y006150D01*
X022400Y006150D01*
X022650Y006400D01*
X022900Y006150D01*
X023400Y006150D01*
X023650Y006400D01*
X023900Y006150D01*
X024400Y006150D01*
X024650Y006400D01*
X024650Y006900D01*
X024400Y007150D01*
X016046Y006803D02*
X016046Y006403D01*
X015696Y006053D01*
X015296Y006053D01*
X014946Y006403D01*
X014946Y006803D01*
X015296Y007153D01*
X015696Y007153D01*
X016046Y006803D01*
X015696Y004436D02*
X015296Y004436D01*
X014946Y004086D01*
X014946Y003686D01*
X015296Y003336D01*
X015696Y003336D01*
X016046Y003686D01*
X016046Y004086D01*
X015696Y004436D01*
X012227Y004607D02*
X012120Y004607D01*
X011907Y004394D01*
X011907Y004607D02*
X011907Y004180D01*
X011689Y004287D02*
X011689Y004500D01*
X011582Y004607D01*
X011369Y004607D01*
X011262Y004500D01*
X011262Y004287D01*
X011369Y004180D01*
X011582Y004180D01*
X011689Y004287D01*
X011046Y004180D02*
X010939Y004287D01*
X010939Y004714D01*
X010832Y004607D02*
X011046Y004607D01*
X010615Y004500D02*
X010615Y004180D01*
X010295Y004180D01*
X010188Y004287D01*
X010295Y004394D01*
X010615Y004394D01*
X010615Y004500D02*
X010508Y004607D01*
X010295Y004607D01*
X009972Y004180D02*
X009758Y004180D01*
X009865Y004180D02*
X009865Y004821D01*
X009758Y004821D01*
X009541Y004607D02*
X009541Y004180D01*
X009220Y004180D01*
X009114Y004287D01*
X009114Y004607D01*
X008896Y004607D02*
X008576Y004607D01*
X008469Y004500D01*
X008469Y004287D01*
X008576Y004180D01*
X008896Y004180D01*
X008896Y004073D02*
X008896Y004607D01*
X008896Y004073D02*
X008789Y003966D01*
X008683Y003966D01*
X008252Y004394D02*
X007825Y004394D01*
X007825Y004500D02*
X007825Y004287D01*
X007931Y004180D01*
X008145Y004180D01*
X008252Y004394D02*
X008252Y004500D01*
X008145Y004607D01*
X007931Y004607D01*
X007825Y004500D01*
X007607Y004500D02*
X007500Y004394D01*
X007180Y004394D01*
X007394Y004394D02*
X007607Y004180D01*
X007607Y004500D02*
X007607Y004714D01*
X007500Y004821D01*
X007180Y004821D01*
X007180Y004180D01*
X007180Y005680D02*
X007500Y005680D01*
X007607Y005787D01*
X007607Y006214D01*
X007500Y006321D01*
X007180Y006321D01*
X007180Y005680D01*
X007825Y005787D02*
X007825Y006214D01*
X007931Y006321D01*
X008145Y006321D01*
X008252Y006214D01*
X008469Y006000D02*
X008896Y006000D01*
X009114Y005680D02*
X009434Y005680D01*
X009541Y005787D01*
X009541Y006214D01*
X009434Y006321D01*
X009114Y006321D01*
X009114Y005680D01*
X009758Y005787D02*
X009758Y006214D01*
X009865Y006321D01*
X010078Y006321D01*
X010185Y006214D01*
X010185Y005787D02*
X010078Y005680D01*
X009865Y005680D01*
X009758Y005787D01*
X008252Y005787D02*
X008145Y005680D01*
X007931Y005680D01*
X007825Y005787D01*
X003920Y006403D02*
X003920Y006803D01*
X003570Y007153D01*
X003170Y007153D01*
X002820Y006803D01*
X002820Y006403D01*
X003170Y006053D01*
X003570Y006053D01*
X003920Y006403D01*
X003570Y004436D02*
X003170Y004436D01*
X002820Y004086D01*
X002820Y003686D01*
X003170Y003336D01*
X003570Y003336D01*
X003920Y003686D01*
X003920Y004086D01*
X003570Y004436D01*
X008180Y013680D02*
X008180Y014107D01*
X008394Y014321D01*
X008607Y014107D01*
X008607Y013680D01*
X008825Y013680D02*
X008825Y014107D01*
X009038Y014107D02*
X009145Y014107D01*
X009038Y014107D02*
X008825Y013894D01*
X008607Y014000D02*
X008180Y014000D01*
X008180Y014680D02*
X008180Y015107D01*
X008394Y015321D01*
X008607Y015107D01*
X008607Y014680D01*
X008825Y014680D02*
X009252Y014680D01*
X009038Y014680D02*
X009038Y015321D01*
X008825Y015107D01*
X008607Y015000D02*
X008180Y015000D01*
X009362Y014000D02*
X009468Y014107D01*
X009789Y014107D01*
X009789Y014321D02*
X009789Y013680D01*
X009468Y013680D01*
X009362Y013787D01*
X009362Y014000D01*
X010006Y014107D02*
X010006Y013787D01*
X010113Y013680D01*
X010433Y013680D01*
X010433Y014107D01*
X010651Y014107D02*
X010758Y014107D01*
X010758Y013680D01*
X010864Y013680D02*
X010651Y013680D01*
X011080Y013680D02*
X011080Y014107D01*
X011401Y014107D01*
X011508Y014000D01*
X011508Y013680D01*
X011725Y013787D02*
X011832Y013680D01*
X012045Y013680D01*
X012152Y013787D01*
X012152Y014000D01*
X012045Y014107D01*
X011832Y014107D01*
X011725Y014000D01*
X011725Y013787D01*
X010758Y014321D02*
X010758Y014427D01*
X009400Y022150D02*
X008900Y022150D01*
X008650Y022400D01*
X008400Y022150D01*
X007900Y022150D01*
X007650Y022400D01*
X007400Y022150D01*
X006900Y022150D01*
X006650Y022400D01*
X006650Y022900D01*
X006900Y023150D01*
X007400Y023150D01*
X007650Y022900D01*
X007900Y023150D01*
X008400Y023150D01*
X008650Y022900D01*
X008900Y023150D01*
X009400Y023150D01*
X009650Y022900D01*
X009650Y022400D01*
X009400Y022150D01*
X019939Y020543D02*
X019939Y020143D01*
X020289Y019793D01*
X020689Y019793D01*
X021039Y020143D01*
X021039Y020543D01*
X020689Y020893D01*
X020289Y020893D01*
X019939Y020543D01*
X025372Y020543D02*
X025372Y020143D01*
X025722Y019793D01*
X026122Y019793D01*
X026472Y020143D01*
X026472Y020543D01*
X026122Y020893D01*
X025722Y020893D01*
X025372Y020543D01*
D12*
X017821Y012630D02*
X017668Y012630D01*
X017591Y012554D01*
X017821Y012630D02*
X017898Y012554D01*
X017898Y012477D01*
X017591Y012170D01*
X017898Y012170D01*
X017437Y012170D02*
X017130Y012170D01*
X017284Y012170D02*
X017284Y012630D01*
X017130Y012477D01*
X016977Y012554D02*
X016900Y012630D01*
X016670Y012630D01*
X016670Y012170D01*
X016900Y012170D01*
X016977Y012247D01*
X016977Y012554D01*
D13*
X016900Y011650D02*
X017400Y011650D01*
X017650Y011400D01*
X017650Y010900D01*
X017400Y010650D01*
X016900Y010650D01*
X016650Y010900D01*
X016400Y010650D01*
X015900Y010650D01*
X015650Y010900D01*
X015400Y010650D01*
X014900Y010650D01*
X014650Y010900D01*
X014400Y010650D01*
X013900Y010650D01*
X013650Y010900D01*
X013400Y010650D01*
X012900Y010650D01*
X012650Y010900D01*
X012400Y010650D01*
X011900Y010650D01*
X011650Y010900D01*
X011400Y010650D01*
X010900Y010650D01*
X010650Y010900D01*
X010400Y010650D01*
X009900Y010650D01*
X009650Y010900D01*
X009400Y010650D01*
X008900Y010650D01*
X008650Y010900D01*
X008400Y010650D01*
X007900Y010650D01*
X007650Y010900D01*
X007400Y010650D01*
X006900Y010650D01*
X006650Y010900D01*
X006400Y010650D01*
X005900Y010650D01*
X005650Y010900D01*
X005400Y010650D01*
X004900Y010650D01*
X004650Y010900D01*
X004400Y010650D01*
X003900Y010650D01*
X003650Y010900D01*
X003400Y010650D01*
X002900Y010650D01*
X002650Y010900D01*
X002650Y011400D01*
X002900Y011650D01*
X003400Y011650D01*
X003650Y011400D01*
X003900Y011650D01*
X004400Y011650D01*
X004650Y011400D01*
X004900Y011650D01*
X005400Y011650D01*
X005650Y011400D01*
X005900Y011650D01*
X006400Y011650D01*
X006650Y011400D01*
X006900Y011650D01*
X007400Y011650D01*
X007650Y011400D01*
X007900Y011650D01*
X008400Y011650D01*
X008650Y011400D01*
X008900Y011650D01*
X009400Y011650D01*
X009650Y011400D01*
X009900Y011650D01*
X010400Y011650D01*
X010650Y011400D01*
X010900Y011650D01*
X011400Y011650D01*
X011650Y011400D01*
X011900Y011650D01*
X012400Y011650D01*
X012650Y011400D01*
X012900Y011650D01*
X013400Y011650D01*
X013650Y011400D01*
X013900Y011650D01*
X014400Y011650D01*
X014650Y011400D01*
X014900Y011650D01*
X015400Y011650D01*
X015650Y011400D01*
X015900Y011650D01*
X016400Y011650D01*
X016650Y011400D01*
X016900Y011650D01*
X020163Y012164D02*
X020238Y012089D01*
X020539Y012089D01*
X020614Y012164D01*
X020614Y012315D01*
X020539Y012390D01*
X020238Y012390D01*
X020163Y012315D01*
X020163Y012164D01*
X020163Y012550D02*
X020539Y012550D01*
X020614Y012625D01*
X020614Y012775D01*
X020539Y012850D01*
X020163Y012850D01*
X020163Y013010D02*
X020163Y013310D01*
X020163Y013160D02*
X020614Y013160D01*
X020388Y013471D02*
X020388Y013771D01*
X021648Y012771D02*
X021648Y012471D01*
X021573Y012310D02*
X021648Y012235D01*
X021648Y012010D01*
X021423Y012010D02*
X021423Y012235D01*
X021498Y012310D01*
X021573Y012310D01*
X021648Y012235D02*
X021723Y012310D01*
X021798Y012310D01*
X021873Y012235D01*
X021873Y012010D01*
X021423Y012010D01*
X024376Y012010D02*
X024376Y012235D01*
X024451Y012310D01*
X024526Y012310D01*
X024601Y012235D01*
X024601Y012010D01*
X024826Y012010D02*
X024826Y012235D01*
X024751Y012310D01*
X024676Y012310D01*
X024601Y012235D01*
X024601Y012471D02*
X024601Y012771D01*
X024451Y012621D02*
X024751Y012621D01*
X024826Y012010D02*
X024376Y012010D01*
X025596Y012164D02*
X025671Y012089D01*
X025972Y012089D01*
X026047Y012164D01*
X026047Y012315D01*
X025972Y012390D01*
X025671Y012390D01*
X025596Y012315D01*
X025596Y012164D01*
X025596Y012550D02*
X025972Y012550D01*
X026047Y012625D01*
X026047Y012775D01*
X025972Y012850D01*
X025596Y012850D01*
X025596Y013010D02*
X025596Y013310D01*
X025596Y013160D02*
X026047Y013160D01*
X025821Y013471D02*
X025821Y013771D01*
X025671Y013621D02*
X025972Y013621D01*
X022361Y008775D02*
X022210Y008775D01*
X022135Y008700D01*
X021975Y008775D02*
X021675Y008325D01*
X021975Y008325D02*
X021675Y008775D01*
X022135Y008325D02*
X022436Y008625D01*
X022436Y008700D01*
X022361Y008775D01*
X022436Y008325D02*
X022135Y008325D01*
X021325Y006875D02*
X021325Y006425D01*
X021175Y006425D02*
X021475Y006425D01*
X021175Y006725D02*
X021325Y006875D01*
X014799Y007003D02*
X014499Y007003D01*
X014649Y007153D02*
X014649Y006853D01*
X014339Y006778D02*
X014339Y007228D01*
X014039Y007228D02*
X014339Y006778D01*
X014039Y006778D02*
X014039Y007228D01*
X013882Y007228D02*
X013732Y007228D01*
X013807Y007228D02*
X013807Y006778D01*
X013732Y006778D02*
X013882Y006778D01*
X013572Y006928D02*
X013572Y007228D01*
X013572Y006928D02*
X013422Y006778D01*
X013271Y006928D01*
X013271Y007228D01*
X013271Y004762D02*
X013271Y004461D01*
X013422Y004311D01*
X013572Y004461D01*
X013572Y004762D01*
X013732Y004762D02*
X013882Y004762D01*
X013807Y004762D02*
X013807Y004311D01*
X013732Y004311D02*
X013882Y004311D01*
X014039Y004311D02*
X014039Y004762D01*
X014339Y004311D01*
X014339Y004762D01*
X014499Y004536D02*
X014799Y004536D01*
X006037Y004286D02*
X005737Y004286D01*
X005577Y004512D02*
X005277Y004512D01*
X005427Y004512D02*
X005427Y004061D01*
X005117Y004136D02*
X005117Y004512D01*
X004816Y004512D02*
X004816Y004136D01*
X004891Y004061D01*
X005041Y004061D01*
X005117Y004136D01*
X004656Y004136D02*
X004581Y004061D01*
X004431Y004061D01*
X004356Y004136D01*
X004356Y004437D01*
X004431Y004512D01*
X004581Y004512D01*
X004656Y004437D01*
X004656Y004136D01*
X004196Y004211D02*
X004046Y004061D01*
X003895Y004211D01*
X003895Y004512D01*
X004196Y004512D02*
X004196Y004211D01*
X004046Y006778D02*
X004196Y006928D01*
X004196Y007228D01*
X004356Y007153D02*
X004356Y006853D01*
X004431Y006778D01*
X004581Y006778D01*
X004656Y006853D01*
X004656Y007153D01*
X004581Y007228D01*
X004431Y007228D01*
X004356Y007153D01*
X004816Y007228D02*
X004816Y006853D01*
X004891Y006778D01*
X005041Y006778D01*
X005117Y006853D01*
X005117Y007228D01*
X005277Y007228D02*
X005577Y007228D01*
X005427Y007228D02*
X005427Y006778D01*
X005737Y007003D02*
X006037Y007003D01*
X005887Y007153D02*
X005887Y006853D01*
X004046Y006778D02*
X003895Y006928D01*
X003895Y007228D01*
X002650Y010900D02*
X002650Y011400D01*
X002900Y016650D02*
X002650Y016900D01*
X002650Y017400D01*
X002900Y017650D01*
X003400Y017650D01*
X003650Y017400D01*
X003900Y017650D01*
X004400Y017650D01*
X004650Y017400D01*
X004900Y017650D01*
X005400Y017650D01*
X005650Y017400D01*
X005900Y017650D01*
X006400Y017650D01*
X006650Y017400D01*
X006900Y017650D01*
X007400Y017650D01*
X007650Y017400D01*
X007900Y017650D01*
X008400Y017650D01*
X008650Y017400D01*
X008900Y017650D01*
X009400Y017650D01*
X009650Y017400D01*
X009900Y017650D01*
X010400Y017650D01*
X010650Y017400D01*
X010900Y017650D01*
X011400Y017650D01*
X011650Y017400D01*
X011900Y017650D01*
X012400Y017650D01*
X012650Y017400D01*
X012900Y017650D01*
X013400Y017650D01*
X013650Y017400D01*
X013900Y017650D01*
X014400Y017650D01*
X014650Y017400D01*
X014900Y017650D01*
X015400Y017650D01*
X015650Y017400D01*
X015900Y017650D01*
X016400Y017650D01*
X016650Y017400D01*
X016900Y017650D01*
X017400Y017650D01*
X017650Y017400D01*
X017650Y016900D01*
X017400Y016650D01*
X016900Y016650D01*
X016650Y016900D01*
X016400Y016650D01*
X015900Y016650D01*
X015650Y016900D01*
X015400Y016650D01*
X014900Y016650D01*
X014650Y016900D01*
X014400Y016650D01*
X013900Y016650D01*
X013650Y016900D01*
X013400Y016650D01*
X012900Y016650D01*
X012650Y016900D01*
X012400Y016650D01*
X011900Y016650D01*
X011650Y016900D01*
X011400Y016650D01*
X010900Y016650D01*
X010650Y016900D01*
X010400Y016650D01*
X009900Y016650D01*
X009650Y016900D01*
X009400Y016650D01*
X008900Y016650D01*
X008650Y016900D01*
X008400Y016650D01*
X007900Y016650D01*
X007650Y016900D01*
X007400Y016650D01*
X006900Y016650D01*
X006650Y016900D01*
X006400Y016650D01*
X005900Y016650D01*
X005650Y016900D01*
X005400Y016650D01*
X004900Y016650D01*
X004650Y016900D01*
X004400Y016650D01*
X003900Y016650D01*
X003650Y016900D01*
X003400Y016650D01*
X002900Y016650D01*
X006175Y022425D02*
X006475Y022425D01*
X006325Y022425D02*
X006325Y022875D01*
X006175Y022725D01*
X006675Y024325D02*
X006975Y024775D01*
X007135Y024625D02*
X007286Y024775D01*
X007286Y024325D01*
X007436Y024325D02*
X007135Y024325D01*
X006975Y024325D02*
X006675Y024775D01*
X020888Y019208D02*
X020888Y018908D01*
X025671Y019058D02*
X025972Y019058D01*
X025821Y018908D02*
X025821Y019208D01*
D14*
X018486Y023275D02*
X018486Y025025D01*
X013814Y025025D01*
X013814Y023275D01*
X018486Y023275D01*
D15*
X018177Y022990D02*
X018177Y022660D01*
X018067Y022660D02*
X018287Y022660D01*
X018067Y022880D02*
X018177Y022990D01*
X017919Y022935D02*
X017864Y022990D01*
X017753Y022990D01*
X017698Y022935D01*
X017698Y022880D01*
X017753Y022825D01*
X017864Y022825D01*
X017919Y022770D01*
X017919Y022715D01*
X017864Y022660D01*
X017753Y022660D01*
X017698Y022715D01*
M02*
