%
M48
M72
T01C0.0315
T02C0.0400
T03C0.0470
%
T01
X3150Y11150
X4150Y11150
X5150Y11150
X6150Y11150
X7150Y11150
X8150Y11150
X9150Y11150
X10150Y11150
X11150Y11150
X12150Y11150
X13150Y11150
X14150Y11150
X15150Y11150
X16150Y11150
X17150Y11150
X17150Y17150
X16150Y17150
X15150Y17150
X14150Y17150
X13150Y17150
X12150Y17150
X11150Y17150
X10150Y17150
X9150Y17150
X8150Y17150
X7150Y17150
X6150Y17150
X5150Y17150
X4150Y17150
X3150Y17150
T02
X7150Y22650
X8150Y22650
X9150Y22650
X15166Y24150
X16150Y24150
X17134Y24150
X22150Y6650
X23150Y6650
X24150Y6650
T03
X3370Y3886
X3370Y6603
X15496Y6603
X15496Y3886
X20489Y11406
X21748Y11406
X24701Y11406
X25922Y11406
X25922Y20343
X20489Y20343
M30
