G75*
G70*
%OFA0B0*%
%FSLAX24Y24*%
%IPPOS*%
%LPD*%
%AMOC8*
5,1,8,0,0,1.08239X$1,22.5*
%
%ADD10C,0.0100*%
%ADD11C,0.0000*%
%ADD12C,0.0060*%
%ADD13C,0.0050*%
D10*
X000150Y000150D02*
X000150Y039520D01*
X039520Y039520D01*
X039520Y000150D01*
X000150Y000150D01*
D11*
X001489Y002119D02*
X001491Y002169D01*
X001497Y002219D01*
X001507Y002268D01*
X001521Y002316D01*
X001538Y002363D01*
X001559Y002408D01*
X001584Y002452D01*
X001612Y002493D01*
X001644Y002532D01*
X001678Y002569D01*
X001715Y002603D01*
X001755Y002633D01*
X001797Y002660D01*
X001841Y002684D01*
X001887Y002705D01*
X001934Y002721D01*
X001982Y002734D01*
X002032Y002743D01*
X002081Y002748D01*
X002132Y002749D01*
X002182Y002746D01*
X002231Y002739D01*
X002280Y002728D01*
X002328Y002713D01*
X002374Y002695D01*
X002419Y002673D01*
X002462Y002647D01*
X002503Y002618D01*
X002542Y002586D01*
X002578Y002551D01*
X002610Y002513D01*
X002640Y002473D01*
X002667Y002430D01*
X002690Y002386D01*
X002709Y002340D01*
X002725Y002292D01*
X002737Y002243D01*
X002745Y002194D01*
X002749Y002144D01*
X002749Y002094D01*
X002745Y002044D01*
X002737Y001995D01*
X002725Y001946D01*
X002709Y001898D01*
X002690Y001852D01*
X002667Y001808D01*
X002640Y001765D01*
X002610Y001725D01*
X002578Y001687D01*
X002542Y001652D01*
X002503Y001620D01*
X002462Y001591D01*
X002419Y001565D01*
X002374Y001543D01*
X002328Y001525D01*
X002280Y001510D01*
X002231Y001499D01*
X002182Y001492D01*
X002132Y001489D01*
X002081Y001490D01*
X002032Y001495D01*
X001982Y001504D01*
X001934Y001517D01*
X001887Y001533D01*
X001841Y001554D01*
X001797Y001578D01*
X001755Y001605D01*
X001715Y001635D01*
X001678Y001669D01*
X001644Y001706D01*
X001612Y001745D01*
X001584Y001786D01*
X001559Y001830D01*
X001538Y001875D01*
X001521Y001922D01*
X001507Y001970D01*
X001497Y002019D01*
X001491Y002069D01*
X001489Y002119D01*
X009110Y035650D02*
X009112Y035692D01*
X009118Y035734D01*
X009128Y035776D01*
X009141Y035816D01*
X009159Y035855D01*
X009180Y035892D01*
X009204Y035926D01*
X009232Y035959D01*
X009262Y035989D01*
X009295Y036015D01*
X009330Y036039D01*
X009368Y036059D01*
X009407Y036075D01*
X009447Y036088D01*
X009489Y036097D01*
X009531Y036102D01*
X009574Y036103D01*
X009616Y036100D01*
X009658Y036093D01*
X009699Y036082D01*
X009739Y036067D01*
X009777Y036049D01*
X009814Y036027D01*
X009848Y036002D01*
X009880Y035974D01*
X009908Y035943D01*
X009934Y035909D01*
X009957Y035873D01*
X009976Y035836D01*
X009992Y035796D01*
X010004Y035755D01*
X010012Y035714D01*
X010016Y035671D01*
X010016Y035629D01*
X010012Y035586D01*
X010004Y035545D01*
X009992Y035504D01*
X009976Y035464D01*
X009957Y035427D01*
X009934Y035391D01*
X009908Y035357D01*
X009880Y035326D01*
X009848Y035298D01*
X009814Y035273D01*
X009777Y035251D01*
X009739Y035233D01*
X009699Y035218D01*
X009658Y035207D01*
X009616Y035200D01*
X009574Y035197D01*
X009531Y035198D01*
X009489Y035203D01*
X009447Y035212D01*
X009407Y035225D01*
X009368Y035241D01*
X009330Y035261D01*
X009295Y035285D01*
X009262Y035311D01*
X009232Y035341D01*
X009204Y035374D01*
X009180Y035408D01*
X009159Y035445D01*
X009141Y035484D01*
X009128Y035524D01*
X009118Y035566D01*
X009112Y035608D01*
X009110Y035650D01*
X014284Y035650D02*
X014286Y035692D01*
X014292Y035734D01*
X014302Y035776D01*
X014315Y035816D01*
X014333Y035855D01*
X014354Y035892D01*
X014378Y035926D01*
X014406Y035959D01*
X014436Y035989D01*
X014469Y036015D01*
X014504Y036039D01*
X014542Y036059D01*
X014581Y036075D01*
X014621Y036088D01*
X014663Y036097D01*
X014705Y036102D01*
X014748Y036103D01*
X014790Y036100D01*
X014832Y036093D01*
X014873Y036082D01*
X014913Y036067D01*
X014951Y036049D01*
X014988Y036027D01*
X015022Y036002D01*
X015054Y035974D01*
X015082Y035943D01*
X015108Y035909D01*
X015131Y035873D01*
X015150Y035836D01*
X015166Y035796D01*
X015178Y035755D01*
X015186Y035714D01*
X015190Y035671D01*
X015190Y035629D01*
X015186Y035586D01*
X015178Y035545D01*
X015166Y035504D01*
X015150Y035464D01*
X015131Y035427D01*
X015108Y035391D01*
X015082Y035357D01*
X015054Y035326D01*
X015022Y035298D01*
X014988Y035273D01*
X014951Y035251D01*
X014913Y035233D01*
X014873Y035218D01*
X014832Y035207D01*
X014790Y035200D01*
X014748Y035197D01*
X014705Y035198D01*
X014663Y035203D01*
X014621Y035212D01*
X014581Y035225D01*
X014542Y035241D01*
X014504Y035261D01*
X014469Y035285D01*
X014436Y035311D01*
X014406Y035341D01*
X014378Y035374D01*
X014354Y035408D01*
X014333Y035445D01*
X014315Y035484D01*
X014302Y035524D01*
X014292Y035566D01*
X014286Y035608D01*
X014284Y035650D01*
X001489Y037552D02*
X001491Y037602D01*
X001497Y037652D01*
X001507Y037701D01*
X001521Y037749D01*
X001538Y037796D01*
X001559Y037841D01*
X001584Y037885D01*
X001612Y037926D01*
X001644Y037965D01*
X001678Y038002D01*
X001715Y038036D01*
X001755Y038066D01*
X001797Y038093D01*
X001841Y038117D01*
X001887Y038138D01*
X001934Y038154D01*
X001982Y038167D01*
X002032Y038176D01*
X002081Y038181D01*
X002132Y038182D01*
X002182Y038179D01*
X002231Y038172D01*
X002280Y038161D01*
X002328Y038146D01*
X002374Y038128D01*
X002419Y038106D01*
X002462Y038080D01*
X002503Y038051D01*
X002542Y038019D01*
X002578Y037984D01*
X002610Y037946D01*
X002640Y037906D01*
X002667Y037863D01*
X002690Y037819D01*
X002709Y037773D01*
X002725Y037725D01*
X002737Y037676D01*
X002745Y037627D01*
X002749Y037577D01*
X002749Y037527D01*
X002745Y037477D01*
X002737Y037428D01*
X002725Y037379D01*
X002709Y037331D01*
X002690Y037285D01*
X002667Y037241D01*
X002640Y037198D01*
X002610Y037158D01*
X002578Y037120D01*
X002542Y037085D01*
X002503Y037053D01*
X002462Y037024D01*
X002419Y036998D01*
X002374Y036976D01*
X002328Y036958D01*
X002280Y036943D01*
X002231Y036932D01*
X002182Y036925D01*
X002132Y036922D01*
X002081Y036923D01*
X002032Y036928D01*
X001982Y036937D01*
X001934Y036950D01*
X001887Y036966D01*
X001841Y036987D01*
X001797Y037011D01*
X001755Y037038D01*
X001715Y037068D01*
X001678Y037102D01*
X001644Y037139D01*
X001612Y037178D01*
X001584Y037219D01*
X001559Y037263D01*
X001538Y037308D01*
X001521Y037355D01*
X001507Y037403D01*
X001497Y037452D01*
X001491Y037502D01*
X001489Y037552D01*
X036922Y037552D02*
X036924Y037602D01*
X036930Y037652D01*
X036940Y037701D01*
X036954Y037749D01*
X036971Y037796D01*
X036992Y037841D01*
X037017Y037885D01*
X037045Y037926D01*
X037077Y037965D01*
X037111Y038002D01*
X037148Y038036D01*
X037188Y038066D01*
X037230Y038093D01*
X037274Y038117D01*
X037320Y038138D01*
X037367Y038154D01*
X037415Y038167D01*
X037465Y038176D01*
X037514Y038181D01*
X037565Y038182D01*
X037615Y038179D01*
X037664Y038172D01*
X037713Y038161D01*
X037761Y038146D01*
X037807Y038128D01*
X037852Y038106D01*
X037895Y038080D01*
X037936Y038051D01*
X037975Y038019D01*
X038011Y037984D01*
X038043Y037946D01*
X038073Y037906D01*
X038100Y037863D01*
X038123Y037819D01*
X038142Y037773D01*
X038158Y037725D01*
X038170Y037676D01*
X038178Y037627D01*
X038182Y037577D01*
X038182Y037527D01*
X038178Y037477D01*
X038170Y037428D01*
X038158Y037379D01*
X038142Y037331D01*
X038123Y037285D01*
X038100Y037241D01*
X038073Y037198D01*
X038043Y037158D01*
X038011Y037120D01*
X037975Y037085D01*
X037936Y037053D01*
X037895Y037024D01*
X037852Y036998D01*
X037807Y036976D01*
X037761Y036958D01*
X037713Y036943D01*
X037664Y036932D01*
X037615Y036925D01*
X037565Y036922D01*
X037514Y036923D01*
X037465Y036928D01*
X037415Y036937D01*
X037367Y036950D01*
X037320Y036966D01*
X037274Y036987D01*
X037230Y037011D01*
X037188Y037038D01*
X037148Y037068D01*
X037111Y037102D01*
X037077Y037139D01*
X037045Y037178D01*
X037017Y037219D01*
X036992Y037263D01*
X036971Y037308D01*
X036954Y037355D01*
X036940Y037403D01*
X036930Y037452D01*
X036924Y037502D01*
X036922Y037552D01*
X036922Y002119D02*
X036924Y002169D01*
X036930Y002219D01*
X036940Y002268D01*
X036954Y002316D01*
X036971Y002363D01*
X036992Y002408D01*
X037017Y002452D01*
X037045Y002493D01*
X037077Y002532D01*
X037111Y002569D01*
X037148Y002603D01*
X037188Y002633D01*
X037230Y002660D01*
X037274Y002684D01*
X037320Y002705D01*
X037367Y002721D01*
X037415Y002734D01*
X037465Y002743D01*
X037514Y002748D01*
X037565Y002749D01*
X037615Y002746D01*
X037664Y002739D01*
X037713Y002728D01*
X037761Y002713D01*
X037807Y002695D01*
X037852Y002673D01*
X037895Y002647D01*
X037936Y002618D01*
X037975Y002586D01*
X038011Y002551D01*
X038043Y002513D01*
X038073Y002473D01*
X038100Y002430D01*
X038123Y002386D01*
X038142Y002340D01*
X038158Y002292D01*
X038170Y002243D01*
X038178Y002194D01*
X038182Y002144D01*
X038182Y002094D01*
X038178Y002044D01*
X038170Y001995D01*
X038158Y001946D01*
X038142Y001898D01*
X038123Y001852D01*
X038100Y001808D01*
X038073Y001765D01*
X038043Y001725D01*
X038011Y001687D01*
X037975Y001652D01*
X037936Y001620D01*
X037895Y001591D01*
X037852Y001565D01*
X037807Y001543D01*
X037761Y001525D01*
X037713Y001510D01*
X037664Y001499D01*
X037615Y001492D01*
X037565Y001489D01*
X037514Y001490D01*
X037465Y001495D01*
X037415Y001504D01*
X037367Y001517D01*
X037320Y001533D01*
X037274Y001554D01*
X037230Y001578D01*
X037188Y001605D01*
X037148Y001635D01*
X037111Y001669D01*
X037077Y001706D01*
X037045Y001745D01*
X037017Y001786D01*
X036992Y001830D01*
X036971Y001875D01*
X036954Y001922D01*
X036940Y001970D01*
X036930Y002019D01*
X036924Y002069D01*
X036922Y002119D01*
D12*
X022085Y025741D02*
X017585Y025741D01*
X017555Y025743D01*
X017525Y025748D01*
X017496Y025757D01*
X017469Y025770D01*
X017443Y025785D01*
X017419Y025804D01*
X017398Y025825D01*
X017379Y025849D01*
X017364Y025875D01*
X017351Y025902D01*
X017342Y025931D01*
X017337Y025961D01*
X017335Y025991D01*
X017335Y027891D01*
X017337Y027921D01*
X017342Y027951D01*
X017351Y027980D01*
X017364Y028007D01*
X017379Y028033D01*
X017398Y028057D01*
X017419Y028078D01*
X017443Y028097D01*
X017469Y028112D01*
X017496Y028125D01*
X017525Y028134D01*
X017555Y028139D01*
X017585Y028141D01*
X022085Y028141D01*
X022115Y028139D01*
X022145Y028134D01*
X022174Y028125D01*
X022201Y028112D01*
X022227Y028097D01*
X022251Y028078D01*
X022272Y028057D01*
X022291Y028033D01*
X022306Y028007D01*
X022319Y027980D01*
X022328Y027951D01*
X022333Y027921D01*
X022335Y027891D01*
X022335Y025991D01*
X022333Y025961D01*
X022328Y025931D01*
X022319Y025902D01*
X022306Y025875D01*
X022291Y025849D01*
X022272Y025825D01*
X022251Y025804D01*
X022227Y025785D01*
X022201Y025770D01*
X022174Y025757D01*
X022145Y025748D01*
X022115Y025743D01*
X022085Y025741D01*
D13*
X022045Y025567D02*
X022196Y025567D01*
X022271Y025492D01*
X021970Y025191D01*
X022045Y025116D01*
X022196Y025116D01*
X022271Y025191D01*
X022271Y025492D01*
X022045Y025567D02*
X021970Y025492D01*
X021970Y025191D01*
X021810Y025116D02*
X021510Y025116D01*
X021660Y025116D02*
X021660Y025567D01*
X021510Y025417D01*
X019546Y028316D02*
X019395Y028316D01*
X019320Y028391D01*
X019160Y028316D02*
X018860Y028767D01*
X019160Y028767D02*
X018860Y028316D01*
X019320Y028692D02*
X019395Y028767D01*
X019546Y028767D01*
X019621Y028692D01*
X019621Y028617D01*
X019546Y028542D01*
X019621Y028466D01*
X019621Y028391D01*
X019546Y028316D01*
X019546Y028542D02*
X019471Y028542D01*
X018010Y028316D02*
X017710Y028316D01*
X017860Y028316D02*
X017860Y028767D01*
X017710Y028617D01*
M02*
