%
M48
M72
T01C0.0360
T02C0.0374
T03C0.0394
T04C0.0400
T05C0.0906
T06C0.1260
%
T01
X17835Y26441
X17835Y27441
X18835Y27441
X18835Y26441
X19835Y26441
X19835Y27441
X20835Y27441
X20835Y26441
X21835Y26441
X21835Y27441
T02
X13528Y34583
X12544Y34583
X11756Y34583
X10772Y34583
T03
X19650Y34276
X21619Y35457
X19650Y36697
X19445Y5217
X20445Y5217
X20445Y4217
X19445Y4217
X18445Y4217
X17445Y4217
X16445Y4217
X15445Y4217
X14445Y4217
X13445Y4217
X12445Y4217
X11445Y4217
X10445Y4217
X10445Y5217
X11445Y5217
X12445Y5217
X13445Y5217
X14445Y5217
X15445Y5217
X16445Y5217
X17445Y5217
X18445Y5217
X21445Y5217
X22445Y5217
X22445Y4217
X21445Y4217
X23445Y4217
X24445Y4217
X24445Y5217
X23445Y5217
X25445Y5217
X26445Y5217
X26445Y4217
X25445Y4217
X27445Y4217
X28445Y4217
X28445Y5217
X27445Y5217
X29445Y5217
X29445Y4217
T04
X29150Y35150
X28150Y35150
X27150Y35150
T05
X14737Y35650
X9563Y35650
T06
X2119Y2119
X2119Y37552
X37552Y37552
X37552Y2119
M30
